<svg width="12" height="20" viewBox="0 0 12 20" fill="none" xmlns="http://www.w3.org/2000/svg">
<path opacity="0.8" d="M10.6524 11.256L11.207 7.63887H7.73556V5.28314C7.71141 5.01301 7.74829 4.74091 7.84347 4.48695C7.93865 4.23299 8.08969 4.00367 8.28543 3.81595C8.48118 3.62823 8.71661 3.4869 8.97432 3.40242C9.23204 3.31794 9.50545 3.29247 9.77434 3.32789H11.3527V0.256885C10.4261 0.107301 9.48993 0.0257038 8.5515 0.0127459C7.9058 -0.0364188 7.25719 0.0570303 6.65163 0.286471C6.04607 0.515912 5.49838 0.875728 5.04738 1.34042C4.59638 1.80512 4.25309 2.36332 4.04186 2.97547C3.83063 3.58762 3.75661 4.23873 3.82506 4.88267V7.63887H0.646973V11.256H3.82506V20H7.73556V11.256H10.6524Z" fill="white"/>
</svg>
