<svg width="24" height="15" viewBox="0 0 24 15" fill="none" xmlns="http://www.w3.org/2000/svg">
<path opacity="0.8" d="M21.4592 6.41645C21.4513 5.70506 21.4486 4.9884 21.446 4.27438H19.3171C19.3092 4.98577 19.3039 5.69979 19.2986 6.41645C18.582 6.41908 17.8706 6.42435 17.1592 6.43226V8.56379C17.8706 8.57169 18.5873 8.57696 19.2986 8.58486C19.3066 9.29625 19.3066 10.0103 19.3118 10.7217H21.4434C21.446 10.0103 21.4513 9.29625 21.4565 8.57959C22.1732 8.57169 22.8846 8.56906 23.596 8.56115V6.42962C22.8872 6.42435 22.1705 6.42435 21.4592 6.41645ZM7.49487 6.42699C7.49224 7.27802 7.49487 8.13168 7.49751 8.98271C8.92555 9.03014 10.3562 9.00906 11.7843 9.03014C11.1546 12.1998 6.84672 13.2273 4.56764 11.1564C2.22269 9.34104 2.33335 5.3599 4.77052 3.67365C6.47521 2.31411 8.89657 2.64872 10.6013 3.82647C11.2705 3.2073 11.8976 2.54333 12.5009 1.85829C11.0834 0.727975 9.34448 -0.0782645 7.49487 0.00604819C3.6323 -0.123056 0.0832594 3.25999 0.0200249 7.1252C-0.227644 10.2843 1.84856 13.3801 4.77842 14.4973C7.69775 15.6223 11.4418 14.8556 13.3072 12.2314C14.5376 10.5741 14.8037 8.43995 14.6588 6.43489C12.2691 6.41645 9.88197 6.41908 7.49487 6.42699Z" fill="white"/>
</svg>
